<svg width="38" height="28" viewBox="0 0 38 28" fill="none" xmlns="http://www.w3.org/2000/svg">
<path d="M6.59747 7.13892L12.6669 8.89115L19.338 4.04614L9.76414 4.32059C9.6704 4.32571 9.57954 4.35478 9.50025 4.40503L6.4708 6.1467C6.37657 6.19891 6.30016 6.27819 6.25147 6.3743C6.20279 6.4704 6.18405 6.5789 6.19769 6.68576C6.21134 6.79263 6.25673 6.89294 6.328 6.97373C6.39927 7.05452 6.49314 7.11206 6.59747 7.13892V7.13892Z" />
<path d="M36.4374 1.71339L29.7874 0.277838C29.2282 0.156424 28.6493 0.156741 28.0902 0.278767C27.531 0.400793 27.0047 0.641674 26.5469 0.985061L6.45965 15.5834L1.63576 15.3723C1.35945 15.3629 1.08718 15.4405 0.857374 15.5942C0.627572 15.7479 0.451856 15.9699 0.355038 16.2289C0.258219 16.4879 0.245191 16.7707 0.317791 17.0375C0.390391 17.3042 0.544952 17.5414 0.75965 17.7156L5.45687 21.4417C5.5342 21.5041 5.62625 21.5456 5.7242 21.5622C5.82215 21.5789 5.92273 21.5701 6.01632 21.5367C7.35687 21.0195 12.3497 18.3701 18.2502 15.1295L19.4324 27.2789C19.4425 27.3842 19.481 27.4847 19.544 27.5696C19.6069 27.6545 19.6919 27.7206 19.7896 27.7608C19.8874 27.801 19.9943 27.8137 20.0987 27.7976C20.2032 27.7815 20.3013 27.7372 20.3824 27.6695L23.0213 25.474C23.1658 25.3528 23.2629 25.1846 23.2958 24.999L25.7974 10.9706C30.0197 8.62728 34.0519 6.35784 36.8913 4.75339C37.186 4.59305 37.4242 4.34601 37.5738 4.04573C37.7234 3.74545 37.777 3.40645 37.7275 3.07466C37.678 2.74288 37.5276 2.43433 37.2969 2.19084C37.0661 1.94735 36.7661 1.78067 36.4374 1.71339V1.71339Z" />
</svg>
