<svg width="28" height="38" viewBox="0 0 28 38" fill="none" xmlns="http://www.w3.org/2000/svg">
<path d="M8.31425 0.625C7.96615 0.625 7.63231 0.763281 7.38617 1.00942C7.14003 1.25556 7.00175 1.5894 7.00175 1.9375C7.00175 2.2856 7.14003 2.61944 7.38617 2.86558C7.63231 3.11172 7.96615 3.25 8.31425 3.25H8.75V5.875H6.125C4.73261 5.875 3.39726 6.42812 2.41269 7.41269C1.42812 8.39726 0.875 9.73261 0.875 11.125V29.5C0.875 30.8924 1.42812 32.2277 2.41269 33.2123C3.39726 34.1969 4.73261 34.75 6.125 34.75V36.0625C6.125 36.4106 6.26328 36.7444 6.50942 36.9906C6.75556 37.2367 7.0894 37.375 7.4375 37.375C7.7856 37.375 8.11944 37.2367 8.36558 36.9906C8.61172 36.7444 8.75 36.4106 8.75 36.0625V34.75H19.25V36.0625C19.25 36.4106 19.3883 36.7444 19.6344 36.9906C19.8806 37.2367 20.2144 37.375 20.5625 37.375C20.9106 37.375 21.2444 37.2367 21.4906 36.9906C21.7367 36.7444 21.875 36.4106 21.875 36.0625V34.75C23.2674 34.75 24.6027 34.1969 25.5873 33.2123C26.5719 32.2277 27.125 30.8924 27.125 29.5V11.125C27.125 9.73261 26.5719 8.39726 25.5873 7.41269C24.6027 6.42812 23.2674 5.875 21.875 5.875H19.25V3.25H19.6884C20.0365 3.25 20.3703 3.11172 20.6165 2.86558C20.8626 2.61944 21.0009 2.2856 21.0009 1.9375C21.0009 1.5894 20.8626 1.25556 20.6165 1.00942C20.3703 0.763281 20.0365 0.625 19.6884 0.625H8.31425ZM11.375 5.875V3.25H16.625V5.875H11.375ZM6.125 15.0625C6.125 14.7144 6.26328 14.3806 6.50942 14.1344C6.75556 13.8883 7.0894 13.75 7.4375 13.75H20.5625C20.9106 13.75 21.2444 13.8883 21.4906 14.1344C21.7367 14.3806 21.875 14.7144 21.875 15.0625C21.875 15.4106 21.7367 15.7444 21.4906 15.9906C21.2444 16.2367 20.9106 16.375 20.5625 16.375H7.4375C7.0894 16.375 6.75556 16.2367 6.50942 15.9906C6.26328 15.7444 6.125 15.4106 6.125 15.0625Z" fill="white"/>
</svg>
