<svg width="29" height="29" viewBox="0 0 29 29" fill="none" xmlns="http://www.w3.org/2000/svg">
<path d="M25.7941 28.2776L16.2005 18.686C14.1057 20.0679 11.5727 20.6234 9.09185 20.2447C6.61103 19.8661 4.35897 18.5803 2.77179 16.6364C1.18461 14.6925 0.375243 12.2288 0.500414 9.72236C0.625585 7.21593 1.67639 4.84512 3.44935 3.06903C5.22511 1.2954 7.59591 0.243907 10.1026 0.118197C12.6092 -0.00751334 15.0733 0.801509 17.0176 2.38857C18.9619 3.97563 20.2481 6.22778 20.6269 8.70882C21.0058 11.1899 20.4504 13.7232 19.0684 15.8182L28.6579 25.4138L25.7941 28.2776ZM10.6138 4.15578C9.00193 4.15471 7.4556 4.79402 6.31505 5.93306C5.1745 7.07211 4.53314 8.61758 4.53207 10.2295C4.531 11.8414 5.17031 13.3877 6.30936 14.5283C7.4484 15.6689 8.99388 16.3102 10.6058 16.3113C11.4039 16.3118 12.1944 16.1551 12.932 15.8502C13.6695 15.5452 14.3398 15.098 14.9046 14.534C15.4693 13.97 15.9175 13.3003 16.2234 12.5631C16.5293 11.8259 16.687 11.0357 16.6876 10.2376C16.6881 9.43941 16.5314 8.64898 16.2265 7.91139C15.9215 7.1738 15.4743 6.5035 14.9103 5.93876C14.3463 5.37401 13.6766 4.92588 12.9394 4.61996C12.2022 4.31404 11.412 4.15631 10.6138 4.15578V4.15578Z" fill="white"/>
</svg>
